<svg xmlns="http://www.w3.org/2000/svg" xmlns:xlink="http://www.w3.org/1999/xlink" width="28" height="28"><defs><path id="a" d="M1416.942 114.695c-.08-.238-.583-.59-1.511-1.054-.252-.146-.61-.344-1.074-.596a96.322 96.322 0 0 1-1.263-.697 41.362 41.362 0 0 1-1.064-.616c-.053-.04-.219-.156-.497-.348a5.566 5.566 0 0 0-.706-.428 1.302 1.302 0 0 0-.567-.14c-.265 0-.597.19-.994.568a9.661 9.661 0 0 0-1.094 1.233c-.332.444-.683.855-1.054 1.233-.372.378-.676.567-.915.567-.12 0-.269-.033-.448-.1a4.074 4.074 0 0 1-.407-.169 6.952 6.952 0 0 1-.478-.278 13.295 13.295 0 0 0-.377-.229c-1.817-1.008-3.375-2.161-4.674-3.46-1.3-1.3-2.453-2.857-3.46-4.674-.014-.026-.09-.152-.23-.378a7.276 7.276 0 0 1-.278-.477 4.236 4.236 0 0 1-.169-.408 1.333 1.333 0 0 1-.1-.447c0-.24.19-.544.568-.915a11.99 11.99 0 0 1 1.233-1.054 9.66 9.66 0 0 0 1.233-1.094c.378-.398.567-.729.567-.995 0-.185-.047-.374-.14-.566a5.6 5.6 0 0 0-.427-.706 25.058 25.058 0 0 0-.348-.497 42.432 42.432 0 0 1-.617-1.065 96.682 96.682 0 0 1-.696-1.262c-.252-.464-.45-.822-.597-1.074-.464-.928-.815-1.432-1.054-1.512a1.12 1.12 0 0 0-.417-.06c-.358 0-.826.067-1.402.2-.577.132-1.031.271-1.363.417-.663.279-1.365 1.088-2.108 2.426-.676 1.247-1.014 2.48-1.014 3.7 0 .358.023.706.07 1.044.046.338.129.719.248 1.143.12.424.215.74.288.945.073.205.21.574.408 1.104.2.53.318.855.358.974.464 1.3 1.015 2.46 1.65 3.48 1.048 1.698 2.477 3.451 4.287 5.261s3.563 3.238 5.26 4.285c1.02.637 2.18 1.187 3.48 1.651.12.04.444.16.975.359.53.198.898.334 1.104.407.205.073.52.17.944.289.424.119.806.201 1.144.248.338.047.686.07 1.044.07 1.22 0 2.453-.338 3.7-1.014 1.338-.743 2.147-1.446 2.425-2.11.146-.33.285-.785.418-1.361.132-.577.199-1.044.199-1.403 0-.185-.02-.324-.06-.417z"/></defs><use fill="#000" xlink:href="#a" opacity=".8" transform="translate(-1389 -93)"/></svg>